<svg xmlns="http://www.w3.org/2000/svg" width="17.146" height="17.281" viewBox="0 0 17.146 17.281">
  <path id="basketball" d="M15.853,3.619A9,9,0,0,0,11.481.38,8.755,8.755,0,0,0,7.81.03,9.053,9.053,0,0,0,3.87,1.541,8.651,8.651,0,0,0,1.145,4.752,8.717,8.717,0,0,0,.2,8.423a9.308,9.308,0,0,0,1.565,5.236A8.353,8.353,0,0,0,6.137,16.9a7.8,7.8,0,0,0,2.591.351,4.853,4.853,0,0,0,1.08-.081,9.053,9.053,0,0,0,3.94-1.511,8.526,8.526,0,0,0,2.726-3.239,8.164,8.164,0,0,0,.864-3.589A8.439,8.439,0,0,0,15.853,3.619Zm.135,5.236a6.337,6.337,0,0,1-.135,1,11.239,11.239,0,0,0-4.237,1.511L9.835,8.854,15.07,5.13A7.543,7.543,0,0,1,15.988,8.854ZM14.207,3.916,8.971,7.64,7.163,5.13A10.316,10.316,0,0,0,9.969,1.541c.3.081.648.135.945.216A7.559,7.559,0,0,1,14.207,3.916ZM7.945,1.541h.513A9.729,9.729,0,0,1,6.38,4.051L5.22,2.4A7.333,7.333,0,0,1,7.945,1.541ZM4.086,3.268l1.16,1.565A9.659,9.659,0,0,1,2.17,5.994c.081-.135.135-.351.216-.513A6.757,6.757,0,0,1,4.086,3.268ZM1.63,8.423c0-.3.081-.648.081-.945A11.328,11.328,0,0,0,6,5.967l1.781,2.51L2.656,12.228A6.957,6.957,0,0,1,1.63,8.423Zm1.808,4.939L8.674,9.637l1.781,2.51a10.976,10.976,0,0,0-2.807,3.508c-.351-.081-.648-.135-1-.216A6.35,6.35,0,0,1,3.439,13.361Zm6.234,2.375H9.241a8.1,8.1,0,0,1,2.078-2.429l1.08,1.511A7.412,7.412,0,0,1,9.673,15.736Zm3.886-1.727L12.479,12.5a9.366,9.366,0,0,1,3.023-1.16.9.9,0,0,0-.135.432A9.964,9.964,0,0,1,13.559,14.009Z" transform="translate(-0.2 0.034)"/>
</svg>
