<svg xmlns="http://www.w3.org/2000/svg" width="32.5" height="24.1" viewBox="0 0 32.5 24.1">
  <g id="contact" transform="translate(0.25 5.5)">
    <path id="Path_45" data-name="Path 45" d="M118.072,88.643a3.447,3.447,0,1,0-3.447-3.447A3.447,3.447,0,0,0,118.072,88.643Zm0-5.553a2.113,2.113,0,1,1-2.113,2.113A2.113,2.113,0,0,1,118.072,83.09Zm0,0" transform="translate(-108.512 -82.36)" fill="#ba8867" stroke="#ba8867" stroke-width="0.5"/>
    <path id="Path_46" data-name="Path 46" d="M85.293,234.872a5.173,5.173,0,0,0-3.747,1.567A5.53,5.53,0,0,0,80,240.353a.669.669,0,0,0,.667.667H89.92a.669.669,0,0,0,.667-.667,5.529,5.529,0,0,0-1.547-3.913A5.172,5.172,0,0,0,85.293,234.872Zm-3.913,4.813a4.078,4.078,0,0,1,1.12-2.313,3.927,3.927,0,0,1,5.587,0,4.1,4.1,0,0,1,1.12,2.313Zm0,0" transform="translate(-75.733 -227.316)" fill="#ba8867" stroke="#ba8867" stroke-width="0.5"/>
    <path id="Path_47" data-name="Path 47" d="M28.667-5.25H3.333A3.335,3.335,0,0,0,0-1.917V15.017A3.335,3.335,0,0,0,3.333,18.35H28.667A3.335,3.335,0,0,0,32,15.017V-1.917A3.335,3.335,0,0,0,28.667-5.25Zm2,20.267a2.006,2.006,0,0,1-2,2H3.333a2.006,2.006,0,0,1-2-2V-1.917a2.006,2.006,0,0,1,2-2H28.667a2.006,2.006,0,0,1,2,2Zm0,0" fill="#ba8867" stroke="#ba8867" stroke-width="0.5"/>
    <path id="Path_48" data-name="Path 48" d="M357.058,203.5h-7.767a.667.667,0,1,0,0,1.333h7.767a.667.667,0,1,0,0-1.333Zm0,0" transform="translate(-330.032 -197.617)" fill="#ba8867" stroke="#ba8867" stroke-width="0.5"/>
    <path id="Path_49" data-name="Path 49" d="M357.058,283.5h-7.767a.667.667,0,1,0,0,1.333h7.767a.667.667,0,1,0,0-1.333Zm0,0" transform="translate(-330.032 -273.35)" fill="#ba8867" stroke="#ba8867" stroke-width="0.5"/>
    <path id="Path_50" data-name="Path 50" d="M357.058,123.5h-7.767a.667.667,0,1,0,0,1.333h7.767a.667.667,0,1,0,0-1.333Zm0,0" transform="translate(-330.032 -121.883)" fill="#ba8867" stroke="#ba8867" stroke-width="0.5"/>
  </g>
</svg>
