<svg xmlns="http://www.w3.org/2000/svg" width="34.06" height="31.208" viewBox="0 0 34.06 31.208">
  <g id="image" transform="translate(0.309 -1.75)">
    <g id="Group_49" data-name="Group 49" transform="translate(0 12.749)">
      <path id="Path_34" data-name="Path 34" d="M24.361,29.66a2.784,2.784,0,0,1-.712-.092L2.066,23.788a2.817,2.817,0,0,1-1.974-3.42l2.723-10.15a.7.7,0,0,1,1.348.36L1.442,20.725a1.417,1.417,0,0,0,.991,1.715l21.575,5.777a1.39,1.39,0,0,0,1.7-.983L26.8,23.2a.7.7,0,1,1,1.348.363l-1.089,4.034A2.788,2.788,0,0,1,24.361,29.66Z" transform="translate(0 -9.701)" fill="#708a8c" stroke="#708a8c" stroke-width="0.5"/>
    </g>
    <g id="Group_50" data-name="Group 50" transform="translate(5.583 2)">
      <path id="Path_35" data-name="Path 35" d="M29.125,24.333H6.792A2.794,2.794,0,0,1,4,21.541V4.792A2.794,2.794,0,0,1,6.792,2H29.125a2.794,2.794,0,0,1,2.792,2.792v16.75A2.794,2.794,0,0,1,29.125,24.333ZM6.792,3.4a1.4,1.4,0,0,0-1.4,1.4v16.75a1.4,1.4,0,0,0,1.4,1.4H29.125a1.4,1.4,0,0,0,1.4-1.4V4.792a1.4,1.4,0,0,0-1.4-1.4Z" transform="translate(-4 -2)" fill="#708a8c" stroke="#708a8c" stroke-width="0.5"/>
    </g>
    <g id="Group_51" data-name="Group 51" transform="translate(9.771 6.187)">
      <path id="Path_36" data-name="Path 36" d="M9.792,10.583a2.792,2.792,0,1,1,2.792-2.792A2.794,2.794,0,0,1,9.792,10.583Zm0-4.187a1.4,1.4,0,1,0,1.4,1.4A1.4,1.4,0,0,0,9.792,6.4Z" transform="translate(-7 -5)" fill="#708a8c" stroke="#708a8c" stroke-width="0.5"/>
    </g>
    <g id="Group_52" data-name="Group 52" transform="translate(5.68 9.747)">
      <path id="Path_37" data-name="Path 37" d="M4.768,20.643a.7.7,0,0,1-.494-1.191l6.592-6.592a2.145,2.145,0,0,1,2.961,0l1.963,1.963L21.222,8.3a2.1,2.1,0,0,1,1.594-.754h.015a2.092,2.092,0,0,1,1.59.73l7.3,8.517a.7.7,0,0,1-1.059.909l-7.3-8.517a.69.69,0,0,0-.53-.243A.741.741,0,0,0,22.3,9.2L16.373,16.3a.7.7,0,0,1-.505.25.672.672,0,0,1-.525-.2l-2.5-2.5a.717.717,0,0,0-.987,0L5.261,20.439a.7.7,0,0,1-.493.2Z" transform="translate(-4.07 -7.55)" fill="#708a8c" stroke="#708a8c" stroke-width="0.5"/>
    </g>
  </g>
</svg>
