<svg id="map-marker" xmlns="http://www.w3.org/2000/svg" width="29" height="29" viewBox="0 0 29 29">
  <path id="Path_51" data-name="Path 51" d="M26.526,357.22a.85.85,0,0,0-.818,1.489c1.012.556,1.593,1.172,1.593,1.691,0,.634-.9,1.618-3.422,2.475a30.337,30.337,0,0,1-9.379,1.313,30.337,30.337,0,0,1-9.379-1.313C2.6,362.018,1.7,361.035,1.7,360.4c0-.519.58-1.135,1.593-1.691a.85.85,0,0,0-.818-1.489C1.345,357.84,0,358.9,0,360.4c0,1.154.794,2.8,4.574,4.084a32.053,32.053,0,0,0,9.926,1.4,32.053,32.053,0,0,0,9.926-1.4C28.206,363.2,29,361.554,29,360.4,29,358.9,27.655,357.84,26.526,357.22Z" transform="translate(0 -336.888)" fill="#709799"/>
  <path id="Path_52" data-name="Path 52" d="M89.79,345.924a27.605,27.605,0,0,0,12.829,0c2.11-.6,3.18-1.459,3.18-2.564s-1.07-1.968-3.18-2.564c-.468-.132-.978-.248-1.519-.347q-.441.762-.925,1.569c.6.09,1.162.2,1.673.33a4.338,4.338,0,0,1,2.237,1.012,4.337,4.337,0,0,1-2.237,1.012,23.462,23.462,0,0,1-5.352.607c-.1.007-.194.011-.292.011s-.2,0-.292-.011a23.458,23.458,0,0,1-5.352-.607,4.338,4.338,0,0,1-2.237-1.012,4.338,4.338,0,0,1,2.237-1.012c.511-.13,1.074-.241,1.674-.33q-.483-.807-.925-1.569c-.542.1-1.051.215-1.519.347-2.11.6-3.18,1.459-3.18,2.564S87.68,345.328,89.79,345.924Z" transform="translate(-81.704 -321.165)" fill="#709799"/>
  <path id="Path_53" data-name="Path 53" d="M124.458,22.126a2.139,2.139,0,0,0,1.838-1.031c2.765-4.523,6.06-10.484,6.06-13.2a7.9,7.9,0,0,0-15.8,0c0,2.713,3.3,8.674,6.06,13.2A2.139,2.139,0,0,0,124.458,22.126Zm-3.175-14.77a3.175,3.175,0,1,1,3.175,3.174A3.178,3.178,0,0,1,121.283,7.356Z" transform="translate(-109.958)" fill="#709799"/>
</svg>
