<svg xmlns="http://www.w3.org/2000/svg" width="19.559" height="17" viewBox="0 0 19.559 17">
  <g id="send-message" transform="translate(-0.001 -33.492)">
    <path id="Path_28" data-name="Path 28" d="M19.546,34.186a.573.573,0,0,0-.764-.656L.37,40.559a.573.573,0,0,0,0,1.07l5.172,2v6.292a.573.573,0,0,0,1.085.258l2.139-4.245,5.221,3.874a.573.573,0,0,0,.89-.293C19.748,33.531,19.538,34.226,19.546,34.186ZM15,36.2l-8.97,6.388L2.172,41.1ZM6.686,43.529,14.5,37.961c-6.728,7.1-6.376,6.724-6.406,6.763-.044.059.076-.17-1.413,2.784ZM14.015,48.4l-4.6-3.41,8.309-8.766Z"/>
  </g>
</svg>
