<svg xmlns="http://www.w3.org/2000/svg" width="14.626" height="19.976" viewBox="0 0 14.626 19.976">
  <g id="shopping-bag" transform="translate(-68.557)">
    <g id="Group_2" data-name="Group 2" transform="translate(68.557)">
      <path id="Path_2" data-name="Path 2" d="M83.173,17.253,82.111,5.562a.626.626,0,0,0-.623-.568H79.615V3.746a3.746,3.746,0,1,0-7.491,0V4.994H70.251a.623.623,0,0,0-.622.568L68.567,17.253a2.5,2.5,0,0,0,2.487,2.723h9.632a2.5,2.5,0,0,0,2.487-2.723Zm-9.8-13.508a2.5,2.5,0,1,1,4.994,0V4.994H73.373Zm8.235,14.576a1.239,1.239,0,0,1-.923.406H71.054a1.248,1.248,0,0,1-1.242-1.362l1.01-11.123h1.3V8.115a.624.624,0,1,0,1.248,0V6.243h4.994V8.115a.624.624,0,0,0,1.249,0V6.243h1.3l1.011,11.124A1.233,1.233,0,0,1,81.608,18.322Z" transform="translate(-68.557 0)"/>
    </g>
  </g>
</svg>
