<svg xmlns="http://www.w3.org/2000/svg" width="21.84" height="23.672" viewBox="0 0 21.84 23.672">
  <path id="shuffle" d="M20.24,15.8a.968.968,0,1,0-1.369,1.369l1.184,1.184H17.687l-3.959-4.921,3.959-4.921h2.368L18.76,9.7a.92.92,0,0,0,0,1.369.947.947,0,0,0,.7.3,1.011,1.011,0,0,0,.7-.3l3.145-3.256a1.273,1.273,0,0,0,0-1.776L20.166,2.78a.92.92,0,0,0-1.369,0,.92.92,0,0,0,0,1.369l2.257,2.368H16.688l-4.255,5.365L8.1,6.517H1a.952.952,0,0,0-1,1,.952.952,0,0,0,1,1H7.215l3.959,4.921L7.215,18.4H1a1,1,0,0,0,0,2H8.1l4.255-5.328,4.255,5.328h4.329L18.76,22.65a.92.92,0,0,0,0,1.369.947.947,0,0,0,.7.3,1.011,1.011,0,0,0,.7-.3l3.145-3.256a1.273,1.273,0,0,0,0-1.776Z" transform="translate(-2.475 23.672) rotate(-90)"/>
</svg>
