<svg xmlns="http://www.w3.org/2000/svg" width="21.861" height="21.596" viewBox="0 0 21.861 21.596">
  <g id="write-message" transform="translate(0.25 -0.011)">
    <path id="Path_26" data-name="Path 26" d="M19.569,50.356a.528.528,0,0,0-.528.528v4.688a1.586,1.586,0,0,1-1.584,1.584H2.64a1.586,1.586,0,0,1-1.584-1.584V41.812A1.586,1.586,0,0,1,2.64,40.228H7.329a.528.528,0,0,0,0-1.056H2.64A2.643,2.643,0,0,0,0,41.812V55.573a2.643,2.643,0,0,0,2.64,2.64H17.457a2.643,2.643,0,0,0,2.64-2.64V50.884a.528.528,0,0,0-.528-.528Zm0,0" transform="translate(0 -36.857)" stroke="#000" stroke-width="0.5"/>
    <path id="Path_27" data-name="Path 27" d="M122.365.957a2.376,2.376,0,0,0-3.361,0l-9.421,9.421a.528.528,0,0,0-.136.232l-1.239,4.473a.528.528,0,0,0,.65.65l4.473-1.239a.528.528,0,0,0,.232-.136l9.42-9.421a2.379,2.379,0,0,0,0-3.361Zm-11.631,9.764,7.71-7.71L120.931,5.5l-7.71,7.71Zm-.5,1,1.987,1.987-2.748.761Zm12-7.527-.56.56-2.487-2.487.56-.56a1.32,1.32,0,0,1,1.867,0l.62.62A1.322,1.322,0,0,1,122.238,4.19Zm0,0" transform="translate(-102.477)" stroke="#000" stroke-width="0.5"/>
  </g>
</svg>
