<svg xmlns="http://www.w3.org/2000/svg" width="25" height="33.181" viewBox="0 0 25 33.181">
  <g id="attachment" transform="translate(-63.834 0.25)">
    <g id="Group_54" data-name="Group 54" transform="translate(69.671 15.574)">
      <g id="Group_53" data-name="Group 53">
        <path id="Path_38" data-name="Path 38" d="M152.7,244.187a.638.638,0,1,0,.187.451A.643.643,0,0,0,152.7,244.187Z" transform="translate(-151.613 -244)" fill="#958775" stroke="#958775" stroke-width="0.5"/>
      </g>
    </g>
    <g id="Group_56" data-name="Group 56" transform="translate(69.671 20.17)">
      <g id="Group_55" data-name="Group 55">
        <path id="Path_39" data-name="Path 39" d="M152.7,316.187a.638.638,0,1,0,.187.451A.643.643,0,0,0,152.7,316.187Z" transform="translate(-151.613 -316)" fill="#958775" stroke="#958775" stroke-width="0.5"/>
      </g>
    </g>
    <g id="Group_58" data-name="Group 58" transform="translate(69.671 24.766)">
      <g id="Group_57" data-name="Group 57">
        <path id="Path_40" data-name="Path 40" d="M152.7,388.187a.638.638,0,1,0,.187.451A.643.643,0,0,0,152.7,388.187Z" transform="translate(-151.613 -388)" fill="#958775" stroke="#958775" stroke-width="0.5"/>
      </g>
    </g>
    <g id="Group_60" data-name="Group 60" transform="translate(72.446 15.574)">
      <g id="Group_59" data-name="Group 59">
        <path id="Path_41" data-name="Path 41" d="M205.634,244h-9.913a.638.638,0,1,0,0,1.277h9.913a.638.638,0,1,0,0-1.277Z" transform="translate(-195.083 -244)" fill="#958775" stroke="#958775" stroke-width="0.5"/>
      </g>
    </g>
    <g id="Group_62" data-name="Group 62" transform="translate(72.446 20.17)">
      <g id="Group_61" data-name="Group 61">
        <path id="Path_42" data-name="Path 42" d="M205.634,316h-9.913a.638.638,0,0,0,0,1.277h9.913a.638.638,0,0,0,0-1.277Z" transform="translate(-195.083 -316)" fill="#958775" stroke="#958775" stroke-width="0.5"/>
      </g>
    </g>
    <g id="Group_64" data-name="Group 64" transform="translate(72.446 24.766)">
      <g id="Group_63" data-name="Group 63">
        <path id="Path_43" data-name="Path 43" d="M205.634,388h-9.913a.638.638,0,1,0,0,1.277h9.913a.638.638,0,1,0,0-1.277Z" transform="translate(-195.083 -388)" fill="#958775" stroke="#958775" stroke-width="0.5"/>
      </g>
    </g>
    <g id="Group_66" data-name="Group 66" transform="translate(64.084)">
      <g id="Group_65" data-name="Group 65">
        <path id="Path_44" data-name="Path 44" d="M88.583,12.863s0,0,0-.007a.27.27,0,0,0,0-.027.636.636,0,0,0-.182-.386L81.759,5.8a.638.638,0,0,0-.425-.186H76.978V4.468a4.468,4.468,0,0,0-8.936,0V5.617h-1.4A2.556,2.556,0,0,0,64.084,8.17V30.128a2.556,2.556,0,0,0,2.553,2.553H86.031a2.556,2.556,0,0,0,2.553-2.553V12.894C88.584,12.882,88.584,12.872,88.583,12.863ZM81.946,7.8,86.4,12.255H83.382a1.438,1.438,0,0,1-1.436-1.436V7.8Zm-9.436-6.52A3.2,3.2,0,0,1,75.7,4.468v5.844a1.943,1.943,0,1,1-3.886,0V4.421a.681.681,0,1,1,1.362,0v5.813a.638.638,0,1,0,1.277,0V4.421a1.957,1.957,0,1,0-3.915,0v1.2h-1.22V4.468h0A3.2,3.2,0,0,1,72.509,1.277Zm14.8,28.851A1.278,1.278,0,0,1,86.031,31.4H66.637a1.278,1.278,0,0,1-1.277-1.277V8.17a1.278,1.278,0,0,1,1.277-1.277h3.9v3.418a3.22,3.22,0,1,0,6.44,0V6.894h3.691v3.926a2.716,2.716,0,0,0,2.713,2.713h3.926Z" transform="translate(-64.084)" fill="#958775" stroke="#958775" stroke-width="0.5"/>
      </g>
    </g>
  </g>
</svg>
