<svg xmlns="http://www.w3.org/2000/svg" width="20.652" height="20.652" viewBox="0 0 20.652 20.652">
  <g id="chat-clouds" transform="translate(0 0)">
    <g id="Group_2" data-name="Group 2" transform="translate(0 0)">
      <g id="Group_1" data-name="Group 1" transform="translate(0 0)">
        <path id="Path_6" data-name="Path 6" d="M18.9,12.366a.807.807,0,0,0-1.5.6l.95,2.35-2.822-1.244a.807.807,0,0,0-.642,0,7.778,7.778,0,0,1-3.07.62A6.989,6.989,0,0,1,4.6,8.153c0-3.606,3.239-6.54,7.22-6.54s7.22,2.934,7.22,6.54a6.578,6.578,0,0,1-.072.924.807.807,0,1,0,1.6.238,8.14,8.14,0,0,0,.09-1.162,7.8,7.8,0,0,0-2.613-5.79A9.168,9.168,0,0,0,11.819,0,9.168,9.168,0,0,0,5.6,2.363a7.84,7.84,0,0,0-2.581,5.1A6.521,6.521,0,0,0,0,12.888a6.259,6.259,0,0,0,1.237,3.74L.059,19.543a.807.807,0,0,0,1.073,1.041l3.4-1.5a7.678,7.678,0,0,0,2.69.479c.02,0,.04,0,.06,0a7.635,7.635,0,0,0,3.8-1.029,6.944,6.944,0,0,0,2.44-2.376,9.283,9.283,0,0,0,1.676-.466L19.52,17.6a.807.807,0,0,0,1.073-1.041ZM7.22,17.949l-.033,0a6.05,6.05,0,0,1-2.357-.482.806.806,0,0,0-.642,0L2.3,18.305,2.909,16.8a.807.807,0,0,0-.134-.826,4.709,4.709,0,0,1-1.161-3.084A4.8,4.8,0,0,1,3.1,9.451a8.143,8.143,0,0,0,2.386,4.361A9.017,9.017,0,0,0,11.36,16.3,5.929,5.929,0,0,1,7.22,17.949Z" transform="translate(0 0)"/>
        <circle id="Ellipse_1" data-name="Ellipse 1" cx="0.5" cy="0.5" r="0.5" transform="translate(12 8)"/>
        <circle id="Ellipse_2" data-name="Ellipse 2" cx="0.5" cy="0.5" r="0.5" transform="translate(15 8)"/>
        <circle id="Ellipse_3" data-name="Ellipse 3" cx="0.5" cy="0.5" r="0.5" transform="translate(8 8)"/>
      </g>
    </g>
  </g>
</svg>
