<svg xmlns="http://www.w3.org/2000/svg" width="17.278" height="15.7" viewBox="0 0 17.278 15.7">
  <path id="heart" d="M8.543,18.6a1.415,1.415,0,0,1-1.16-.513L1.449,11.721A5.511,5.511,0,0,1,.5,5.544,4.738,4.738,0,0,1,4.74,2.9,4.818,4.818,0,0,1,8.193,4.411l.351.351.351-.351A4.685,4.685,0,0,1,12.347,2.9h0A4.685,4.685,0,0,1,15.8,4.411,4.989,4.989,0,0,1,17.23,8a5.413,5.413,0,0,1-1.349,3.588L10,17.872a2.363,2.363,0,0,1-.647.513,1.817,1.817,0,0,1-.809.216Zm-.054-1.511.081.081c.081,0,.135-.108.189-.189l5.962-6.42a3.894,3.894,0,0,0,1-2.59,3.651,3.651,0,0,0-1-2.59A3.18,3.18,0,0,0,12.293,4.3h0A3.14,3.14,0,0,0,9.865,5.382L8.516,6.812,7.168,5.382a3.375,3.375,0,0,0-2.374-1A3.508,3.508,0,0,0,1.718,6.272a4.067,4.067,0,0,0,.755,4.5Z" transform="translate(0.048 -2.9)"/>
</svg>
