<svg xmlns="http://www.w3.org/2000/svg" width="18.326" height="24.435" viewBox="0 0 18.326 24.435">
  <g id="map-marker" transform="translate(-8)">
    <path id="Path_57" data-name="Path 57" d="M17.163,0A9.379,9.379,0,0,0,8,9.659c0,4.582,6.3,12.1,8.247,14.355a1.1,1.1,0,0,0,.916.42,1.165,1.165,0,0,0,.916-.42c1.947-2.214,8.247-9.85,8.247-14.355A9.379,9.379,0,0,0,17.163,0Zm0,21.991c-3.474-4.085-7.14-9.469-7.14-12.332a7.346,7.346,0,0,1,7.14-7.636A7.418,7.418,0,0,1,24.3,9.659C24.3,12.523,20.637,17.906,17.163,21.991Z"/>
    <path id="Path_58" data-name="Path 58" d="M25.385,13.3a4.085,4.085,0,1,0,4.085,4.085A4.09,4.09,0,0,0,25.385,13.3Zm0,6.109a2.024,2.024,0,1,1,2.024-2.024A2.037,2.037,0,0,1,25.385,19.409Z" transform="translate(-8.222 -8.222)"/>
  </g>
</svg>
