<svg xmlns="http://www.w3.org/2000/svg" width="14" height="21.593" viewBox="0 0 14 21.593">
  <g id="microphone" transform="translate(-0.501 -0.001)">
    <path id="Path_32" data-name="Path 32" d="M14.5,260.46a.644.644,0,0,0-1.288,0,5.712,5.712,0,1,1-11.424,0,.644.644,0,0,0-1.288,0,7.009,7.009,0,0,0,6.356,6.97v1.734H4.467a.644.644,0,0,0,0,1.288h6.067a.644.644,0,0,0,0-1.288H8.145V267.43a7.009,7.009,0,0,0,6.356-6.97Zm0,0" transform="translate(0 -248.858)" fill="#707070"/>
    <path id="Path_33" data-name="Path 33" d="M72.837,15.725A4.128,4.128,0,0,0,76.961,11.6V4.124a4.123,4.123,0,0,0-8.246,0V11.6A4.128,4.128,0,0,0,72.837,15.725ZM70,4.124a2.835,2.835,0,0,1,5.671,0V11.6A2.835,2.835,0,0,1,70,11.6Zm0,0" transform="translate(-65.337 0)" fill="#707070"/>
  </g>
</svg>
