<svg id="notify-bell" xmlns="http://www.w3.org/2000/svg" width="21.819" height="23.803" viewBox="0 0 21.819 23.803">
  <path id="Path_1" data-name="Path 1" d="M369.572,33.389a.744.744,0,0,1-.744-.744,10.594,10.594,0,0,0-3.122-7.539.744.744,0,1,1,1.052-1.052,12.074,12.074,0,0,1,3.557,8.592.744.744,0,0,1-.744.744Zm0,0" transform="translate(-348.497 -22.728)"/>
  <path id="Path_2" data-name="Path 2" d="M.744,33.408A.744.744,0,0,1,0,32.664a12.068,12.068,0,0,1,3.558-8.591.744.744,0,1,1,1.052,1.052,10.587,10.587,0,0,0-3.123,7.538.744.744,0,0,1-.744.744Zm0,0" transform="translate(0 -22.746)"/>
  <path id="Path_3" data-name="Path 3" d="M158.387,420.463a3.723,3.723,0,0,1-3.719-3.719.744.744,0,1,1,1.488,0,2.231,2.231,0,0,0,4.463,0,.744.744,0,1,1,1.488,0A3.723,3.723,0,0,1,158.387,420.463Zm0,0" transform="translate(-147.478 -396.66)"/>
  <path id="Path_4" data-name="Path 4" d="M39.432,81.852H23.068A1.736,1.736,0,0,1,21.939,78.8a6.647,6.647,0,0,0,2.368-5.09V70.943a6.942,6.942,0,0,1,13.885,0v2.765a6.645,6.645,0,0,0,2.358,5.083,1.735,1.735,0,0,1-1.119,3.062ZM31.25,65.488A5.461,5.461,0,0,0,25.8,70.943v2.765a8.128,8.128,0,0,1-2.886,6.218.247.247,0,0,0-.089.19.251.251,0,0,0,.248.248H39.432a.251.251,0,0,0,.248-.248.244.244,0,0,0-.087-.188,8.131,8.131,0,0,1-2.888-6.22V70.943a5.461,5.461,0,0,0-5.455-5.455Zm0,0" transform="translate(-20.34 -61.025)"/>
  <path id="Path_5" data-name="Path 5" d="M219.412,4.463a.744.744,0,0,1-.744-.744V.744a.744.744,0,1,1,1.488,0V3.719A.744.744,0,0,1,219.412,4.463Zm0,0" transform="translate(-208.502)"/>
</svg>
