<svg xmlns="http://www.w3.org/2000/svg" width="19.073" height="19.106" viewBox="0 0 19.073 19.106">
  <path id="phone-call" d="M12.622,4.249A4.062,4.062,0,0,1,15.83,7.458M12.622,1a7.311,7.311,0,0,1,6.458,6.45m-.812,6.482v2.437A1.625,1.625,0,0,1,16.5,17.993,16.075,16.075,0,0,1,9.486,15.5a15.84,15.84,0,0,1-4.874-4.874A16.075,16.075,0,0,1,2.118,3.583,1.625,1.625,0,0,1,3.735,1.812H6.172A1.625,1.625,0,0,1,7.8,3.209a10.43,10.43,0,0,0,.569,2.283A1.625,1.625,0,0,1,8,7.206L6.968,8.238a13,13,0,0,0,4.874,4.874l1.032-1.032a1.625,1.625,0,0,1,1.714-.366,10.43,10.43,0,0,0,2.283.569,1.625,1.625,0,0,1,1.4,1.649Z" transform="translate(-1.111 0.104)" fill="none" stroke="#777" stroke-linecap="round" stroke-linejoin="round" stroke-width="2"/>
</svg>
