<svg xmlns="http://www.w3.org/2000/svg" width="23" height="23" viewBox="0 0 23 23">
  <path id="send-message" d="M22.027.039.511,7.069A.743.743,0,0,0,.368,8.416L8.5,13.144a.742.742,0,0,0,.815-.046L11.6,11.4,9.9,13.687a.742.742,0,0,0-.046.815l4.728,8.131a.743.743,0,0,0,1.347-.142L22.962.975a.743.743,0,0,0-.936-.936ZM15.036,20.456l-3.65-6.277,4.4-5.926a.742.742,0,0,0-1.038-1.038l-5.926,4.4L2.546,7.966,21.1,1.9Zm-7.246-4.2L2.864,21.187a.742.742,0,0,1-1.049-1.049l4.926-4.926A.742.742,0,0,1,7.79,16.261Zm-6.508.186a.742.742,0,0,1,0-1.049l1.944-1.944A.742.742,0,0,1,4.275,14.5L2.331,16.447a.742.742,0,0,1-1.049,0Zm8.265,2.279a.742.742,0,0,1,0,1.049L7.6,21.719A.742.742,0,1,1,6.554,20.67L8.5,18.726A.742.742,0,0,1,9.547,18.726Z" transform="translate(0 -0.001)" fill="#fff"/>
</svg>
