<svg xmlns="http://www.w3.org/2000/svg" width="25.311" height="18.984" viewBox="0 0 25.311 18.984">
  <path id="service" d="M24.244,20.537H23.176a10.928,10.928,0,0,0-9.492-9.69V10.1H14a1.017,1.017,0,0,0,1.068-1.068A.955.955,0,0,0,14.04,8H11.311a1.017,1.017,0,0,0-1.068,1.068,1.017,1.017,0,0,0,1.068,1.068h.316v.751a11.083,11.083,0,0,0-9.492,9.69H1.068A1.017,1.017,0,0,0,0,21.644v.949a4.466,4.466,0,0,0,4.429,4.39H20.882a4.474,4.474,0,0,0,4.429-4.429V21.6A1.088,1.088,0,0,0,24.244,20.537ZM12.656,12.944a8.753,8.753,0,0,1,8.424,7.593H4.232A8.753,8.753,0,0,1,12.656,12.944Zm8.226,11.944H4.429A2.264,2.264,0,0,1,2.1,22.673h21.08A2.206,2.206,0,0,1,20.882,24.887Z" transform="translate(0 -8)"/>
</svg>
