<svg xmlns="http://www.w3.org/2000/svg" width="19.073" height="15.112" viewBox="0 0 19.073 15.112">
  <g id="sort-amount-dsc" transform="translate(-0.012 -6.6)">
    <path id="Path_93" data-name="Path 93" d="M6.6,17.181,4.777,19.029V7.4a.767.767,0,0,0-.8-.8.767.767,0,0,0-.8.8V19L1.35,17.181a.741.741,0,0,0-1.1,0,.765.765,0,0,0,0,1.1l3.189,3.189A.763.763,0,0,0,4,21.712H4a.814.814,0,0,0,.566-.238l3.189-3.189a.741.741,0,0,0,0-1.1A.867.867,0,0,0,6.6,17.181Z" transform="translate(0)"/>
    <path id="Path_94" data-name="Path 94" d="M33.294,49.3H30.1a.8.8,0,0,0,0,1.61h3.189a.767.767,0,0,0,.8-.8A.842.842,0,0,0,33.294,49.3Z" transform="translate(-20.558 -29.973)"/>
    <path id="Path_95" data-name="Path 95" d="M34.874,36H30.1a.8.8,0,0,0,0,1.61h4.769a.8.8,0,1,0,0-1.61Z" transform="translate(-20.558 -20.637)"/>
    <path id="Path_96" data-name="Path 96" d="M36.454,22.7H30.1a.8.8,0,0,0,0,1.61h6.349a.767.767,0,0,0,.8-.8A.751.751,0,0,0,36.454,22.7Z" transform="translate(-20.558 -11.301)"/>
    <path id="Path_97" data-name="Path 97" d="M38.838,9.3H30.1a.8.8,0,0,0,0,1.61h8.733a.8.8,0,1,0,0-1.61Z" transform="translate(-20.558 -1.895)"/>
  </g>
</svg>
