<svg xmlns="http://www.w3.org/2000/svg" width="23" height="21.673" viewBox="0 0 23 21.673">
  <path id="thumbs-up" d="M22.3,10.635c-.934-2.227-4.2-2.227-6.214-2.119.287-1.544.575-4.2.108-5.172A2.774,2.774,0,0,0,13.9,1.8h-.18a2.481,2.481,0,0,0-2.3,1.257A41.441,41.441,0,0,1,6.429,9.378H1.9a1.916,1.916,0,0,0-1.9,1.9V19.9a1.916,1.916,0,0,0,1.9,1.9H5.28A23.253,23.253,0,0,0,11.6,23.458c.862.036.862,0,1.329,0a12.281,12.281,0,0,0,6.716-1.724C22.843,19.507,23.813,13.76,22.3,10.635Zm-20.4.646h1.9V19.9H1.9Zm16.593,8.8a10.9,10.9,0,0,1-5.639,1.437h-.79a4.814,4.814,0,0,1-.718-.036,17.9,17.9,0,0,1-4.6-.97,2.515,2.515,0,0,1-.611-.323l-.4-.287v-8.62h.79a1.856,1.856,0,0,0,1.329-.575,57.887,57.887,0,0,0,5.244-6.68.85.85,0,0,1,.754-.4.736.736,0,0,1,.754.467,17.432,17.432,0,0,1-.4,4.49l-.287,1.293a.36.36,0,0,0,.359.431h1.76c1.329-.072,4.13-.072,4.6.97C21.694,13.76,20.939,18.537,18.5,20.081Z" transform="translate(0 -1.8)"/>
</svg>
